# xmcd
#
# Track frame offsets: 
#        150
#        17175
#        32061
#        45788
#        59782
#        72160
#        90242
#        104117
#        117992
#        132226
#        146031
#        159907
#        176069
#
# Disc length: 2545 seconds
#
# Revision: 0
# Processed by: cddbd v1.5.2PL0 Copyright (c) Steve Scherf et al.
# Submitted via: ExactAudioCopy v0.99pb3
#
DISCID=b309ef0d
DTITLE=Various Artist - Lieder so schön wie das Meer
DYEAR=2007
DGENRE=Country
TTITLE0=An de Küst von de Waterkant  
TTITLE1=Auch die Friesenmädchen träumen
TTITLE2=Auf der Reeperbahn nachts um halb eins
TTITLE3=Das ist die Liebe der Matrosen
TTITLE4=Das kann doch einen Seemann nicht erschüttern
TTITLE5=Der Abend ist schön wenn die Heide blüht 
TTITLE6=Die Friesenmädchen sind da
TTITLE7=Die Sterne von Friesland
TTITLE8=Ein Fischerleben  
TTITLE9=Eine Seefahrt, die ist lustig 
TTITLE10=Einsamer Abend am Strande
TTITLE11=Fahr mich in die Ferne, mein blonder Matrose
TTITLE12=Gleich hinter den Dünen
EXTD=
EXTT0=
EXTT1=
EXTT2=
EXTT3=
EXTT4=
EXTT5=
EXTT6=
EXTT7=
EXTT8=
EXTT9=
EXTT10=
EXTT11=
EXTT12=
PLAYORDER=
